<?xml version="1.0" encoding="utf-8"?>
<!-- Generator: Adobe Illustrator 24.1.2, SVG Export Plug-In . SVG Version: 6.00 Build 0)  -->
<svg version="1.1" id="Camada_1" xmlns="http://www.w3.org/2000/svg" xmlns:xlink="http://www.w3.org/1999/xlink" x="0px" y="0px"
	 viewBox="0 0 20 17.7" style="enable-background:new 0 0 20 17.7;" xml:space="preserve">
<style type="text/css">
	.st0{fill-rule:evenodd;clip-rule:evenodd;fill:#DF5E41;}
</style>
<desc>Created with Sketch.</desc>
<g id="_x2D_Round-_x2F_-Alert-_x2F_-warning" transform="translate(0.000000, 54.000000)">
	<g>
		<path id="_xD83D__xDD39_Icon-Color" class="st0" d="M2.2-36.3h15.7c1.6,0,2.6-1.8,1.8-3.1L11.9-53C11-54.3,9-54.3,8.2-53L0.3-39.5
			C-0.4-38.1,0.5-36.3,2.2-36.3z M10-43.6c-0.6,0-1-0.5-1-1v-2.1c0-0.5,0.4-1,1-1s1,0.5,1,1v2.1C11-44.1,10.6-43.6,10-43.6z
			 M11-39.5H9v-2.1H11V-39.5z"/>
	</g>
</g>
</svg>
