<?xml version="1.0" encoding="utf-8"?>
<!-- Generator: Adobe Illustrator 24.1.2, SVG Export Plug-In . SVG Version: 6.00 Build 0)  -->
<svg version="1.1" id="Camada_1" xmlns="http://www.w3.org/2000/svg" xmlns:xlink="http://www.w3.org/1999/xlink" x="0px" y="0px"
	 viewBox="0 0 20 20" style="enable-background:new 0 0 20 20;" xml:space="preserve">
<style type="text/css">
	.st0{fill-rule:evenodd;clip-rule:evenodd;fill:#09B286;}
</style>
<desc>Created with Sketch.</desc>
<g id="_x2D_Round-_x2F_-Action-_x2F_-check_x5F_circle" transform="translate(544.000000, 98.000000)">
	<g>
		<path id="_xD83D__xDD39_Icon-Color" class="st0" d="M-534-98c-5.5,0-10,4.5-10,10c0,5.5,4.5,10,10,10s10-4.5,10-10
			C-524-93.5-528.5-98-534-98z M-536.7-83.7l-3.6-3.6c-0.4-0.4-0.4-1,0-1.4s1-0.4,1.4,0l2.9,2.9l6.9-6.9c0.4-0.4,1-0.4,1.4,0
			c0.4,0.4,0.4,1,0,1.4l-7.6,7.6C-535.7-83.3-536.3-83.3-536.7-83.7z"/>
	</g>
</g>
</svg>
