<?xml version="1.0" encoding="utf-8"?>
<!-- Generator: Adobe Illustrator 24.1.2, SVG Export Plug-In . SVG Version: 6.00 Build 0)  -->
<svg version="1.1" id="Layer_1" xmlns="http://www.w3.org/2000/svg" xmlns:xlink="http://www.w3.org/1999/xlink" x="0px" y="0px"
	 viewBox="0 0 100.8 100.7" style="enable-background:new 0 0 100.8 100.7;" xml:space="preserve">
<style type="text/css">
	.st0{fill:#7579E7;}
</style>
<g>
	<path class="st0" d="M17.3,56.9c0-0.8-0.6-1.5-1.5-1.5s-1.5,0.7-1.5,1.5c0,4.1,3.6,7.4,8.3,8v6.2c0,0.8,0.6,1.5,1.5,1.5
		s1.5-0.7,1.5-1.5v-6.2c4.7-0.6,8.2-3.9,8.2-8c0-4-3.6-7.4-8.2-8V38.6c3,0.5,5.3,2.6,5.3,5.1c0,0.8,0.6,1.5,1.5,1.5
		c0.8,0,1.5-0.7,1.5-1.5c0-4-3.6-7.4-8.2-8v-6.2c0-0.8-0.6-1.5-1.5-1.5s-1.5,0.6-1.5,1.5v6.2c-4.7,0.6-8.3,3.9-8.3,8
		c0,4,3.6,7.4,8.3,8V62C19.6,61.5,17.3,59.4,17.3,56.9z M30.9,56.9c0,2.5-2.3,4.6-5.3,5.1V51.9C28.6,52.4,30.9,54.5,30.9,56.9z
		 M17.3,43.7c0-2.5,2.3-4.6,5.3-5.1v10.1C19.6,48.2,17.3,46.2,17.3,43.7z"/>
	<path class="st0" d="M96.5,20.4h-93c-0.8,0-1.5,0.6-1.5,1.5v59.2c0,0.8,0.7,1.5,1.5,1.5h93c0.8,0,1.5-0.7,1.5-1.5V21.9
		C98,21.1,97.3,20.4,96.5,20.4z M95.1,79.6H4.9V23.3h90.1L95.1,79.6L95.1,79.6z"/>
	<path class="st0" d="M45.8,40.2h42.3c0.8,0,1.5-0.7,1.5-1.5s-0.7-1.5-1.5-1.5H45.8c-0.8,0-1.5,0.7-1.5,1.5S45,40.2,45.8,40.2z"/>
	<path class="st0" d="M45.8,51.8h42.3c0.8,0,1.5-0.7,1.5-1.5c0-0.8-0.7-1.5-1.5-1.5H45.8c-0.8,0-1.5,0.7-1.5,1.5
		C44.3,51.1,45,51.8,45.8,51.8z"/>
	<path class="st0" d="M45.8,65.6h42.3c0.8,0,1.5-0.7,1.5-1.5s-0.7-1.5-1.5-1.5H45.8c-0.8,0-1.5,0.7-1.5,1.5
		C44.3,64.9,45,65.6,45.8,65.6z"/>
</g>
</svg>
