<?xml version="1.0" encoding="utf-8"?>
<!-- Generator: Adobe Illustrator 24.1.2, SVG Export Plug-In . SVG Version: 6.00 Build 0)  -->
<svg version="1.1" id="Camada_1" xmlns="http://www.w3.org/2000/svg" xmlns:xlink="http://www.w3.org/1999/xlink" x="0px" y="0px"
	 viewBox="0 0 18 18" style="enable-background:new 0 0 18 18;" xml:space="preserve">
<style type="text/css">
	.st0{fill-rule:evenodd;clip-rule:evenodd;fill:#7579E7;}
</style>
<desc>Created with Sketch.</desc>
<g id="Action" transform="translate(100.000000, 100.000000)">
	<g id="_x2D_Round-_x2F_-Action-_x2F_-dashboard" transform="translate(238.000000, 142.000000)">
		<g>
			<path id="_xD83D__xDD39_Icon-Color" class="st0" d="M-337-232h6c0.5,0,1-0.4,1-1v-8c0-0.6-0.5-1-1-1h-6c-0.5,0-1,0.4-1,1v8
				C-338-232.4-337.5-232-337-232z M-337-224h6c0.5,0,1-0.4,1-1v-4c0-0.6-0.5-1-1-1h-6c-0.5,0-1,0.4-1,1v4
				C-338-224.4-337.5-224-337-224z M-327-224h6c0.5,0,1-0.4,1-1v-8c0-0.6-0.5-1-1-1h-6c-0.5,0-1,0.4-1,1v8
				C-328-224.4-327.5-224-327-224z M-328-241v4c0,0.6,0.5,1,1,1h6c0.5,0,1-0.4,1-1v-4c0-0.6-0.5-1-1-1h-6
				C-327.5-242-328-241.6-328-241z"/>
		</g>
	</g>
</g>
</svg>
