<?xml version="1.0" encoding="utf-8"?>
<!-- Generator: Adobe Illustrator 24.1.2, SVG Export Plug-In . SVG Version: 6.00 Build 0)  -->
<svg version="1.1" id="Camada_1" xmlns="http://www.w3.org/2000/svg" xmlns:xlink="http://www.w3.org/1999/xlink" x="0px" y="0px"
	 viewBox="0 0 36 48" style="enable-background:new 0 0 36 48;" xml:space="preserve">
<style type="text/css">
	.st0{fill:#7579E7;}
</style>
<path class="st0" d="M0,6v36c0,3.3,2.7,6,6,6h20c3.3,0,6-2.7,6-6v-2.5c0-1.4-1.1-2.5-2.5-2.5l0,0c-1.4,0-2.5,1.1-2.5,2.5V42
	c0,0.6-0.4,1-1,1H6c-0.6,0-1-0.4-1-1V6c0-0.6,0.4-1,1-1h20c0.6,0,1,0.4,1,1v2.5c0,1.4,1.1,2.5,2.5,2.5l0,0c1.4,0,2.5-1.1,2.5-2.5V6
	c0-3.3-2.7-6-6-6H6C2.7,0,0,2.7,0,6z"/>
<path class="st0" d="M35.4,25.4l-7.5,7.5c-0.8,0.8-2,0.8-2.8,0c-0.4-0.4-0.6-0.9-0.6-1.4V28h-9.9c-1.1,0-2-0.9-2-2v-4
	c0-1.1,0.9-2,2-2h9.9v-3.5c0-1.1,0.9-2,2-2c0.5,0,1,0.2,1.4,0.6l7.5,7.5C36.2,23.4,36.2,24.6,35.4,25.4z"/>
</svg>
